# xmcd
#
# Track frame offsets:
#	150
#	22212
#	39427
#	53693
#	71007
#	85656
#	107942
#	124189
#	142534
#	167876
#	186883
#	207460
#	229521
#	232709
#
# Disc length: 3413 seconds
#
# Revision: 1
# Processed by: cddbd v1.5.2PL0 Copyright (c) Steve Scherf et al.
# Submitted via: audiograbber 1.83.01
#
DISCID=b60d530e
DTITLE=Roland Grothe - gettin´ older ... ... what´s wrong?
DYEAR=2009
DGENRE=
TTITLE0=Old Hippie
TTITLE1=Deportee (Plane Wreck At Los Gatos)
TTITLE2=Little Arrows
TTITLE3=What´s Wrong With The Way That We´re Doin` It Now
TTITLE4=Chain of Love
TTITLE5=My Heroes Have Always Been Cowboys
TTITLE6=Put Another Log On The Fire
TTITLE7=Vincent
TTITLE8=Pflastertreter
TTITLE9=Zeugnistag
TTITLE10=The Late John Garfield Blues
TTITLE11=Old Hippie (The Sequel)
TTITLE12=Description
TTITLE13=Pancho and Lefty
EXTD=
EXTT0=
EXTT1=
EXTT2=
EXTT3=
EXTT4=
EXTT5=
EXTT6=
EXTT7=
EXTT8=
EXTT9=
EXTT10=
EXTT11=
EXTT12=
EXTT13=
PLAYORDER=
